HIERARCHY
ROOT root
{
	OFFSET 0.000000 0.000000 0.000000
	CHANNELS 6 Xposition Yposition Zposition Zrotation Yrotation Xrotation
	JOINT lhip
	{
		OFFSET 0.058581 -0.082280 -0.017664
		CHANNELS 3 Zrotation Yrotation Xrotation
		JOINT lknee
		{
			OFFSET 0.043451 -0.386469 0.008037
			CHANNELS 3 Zrotation Yrotation Xrotation
			JOINT lankle
			{
				OFFSET -0.014790 -0.426874 -0.037428
				CHANNELS 3 Zrotation Yrotation Xrotation
				JOINT ltoe
				{
					OFFSET 0.041054 -0.060286 0.122042
					CHANNELS 3 Zrotation Yrotation Xrotation
					End Site
					{
						OFFSET 0.000000 0.000000 0.000000
					}
				}
			}
		}
	}
	JOINT rhip
	{
		OFFSET -0.060310 -0.090513 -0.013543
		CHANNELS 3 Zrotation Yrotation Xrotation
		JOINT rknee
		{
			OFFSET -0.043257 -0.383688 -0.004843
			CHANNELS 3 Zrotation Yrotation Xrotation
			JOINT rankle
			{
				OFFSET 0.019056 -0.420046 -0.034562
				CHANNELS 3 Zrotation Yrotation Xrotation
				JOINT rtoe
				{
					OFFSET -0.034840 -0.062106 0.130323
					CHANNELS 3 Zrotation Yrotation Xrotation
					End Site
					{
						OFFSET 0.000000 0.000000 0.000000
					}
				}
			}
		}
	}
	JOINT lowerback
	{
		OFFSET 0.004439 0.124404 -0.038385
		CHANNELS 3 Zrotation Yrotation Xrotation
		JOINT upperback
		{
			OFFSET 0.004488 0.137956 0.026820
			CHANNELS 3 Zrotation Yrotation Xrotation
			JOINT chest
			{
				OFFSET -0.002265 0.056032 0.002855
				CHANNELS 3 Zrotation Yrotation Xrotation
				JOINT lowerneck
				{
					OFFSET -0.013390 0.211636 -0.033468
					CHANNELS 3 Zrotation Yrotation Xrotation
					JOINT upperneck
					{
						OFFSET 0.010113 0.088937 0.050410
						CHANNELS 3 Zrotation Yrotation Xrotation
						End Site
						{
							OFFSET 0.000000 0.000000 0.000000
						}
					}
				}
				JOINT lclavicle
				{
					OFFSET 0.071702 0.114000 -0.018898
					CHANNELS 3 Zrotation Yrotation Xrotation
					JOINT lshoulder
					{
						OFFSET 0.122921 0.045205 -0.019046
						CHANNELS 3 Zrotation Yrotation Xrotation
						JOINT lelbow
						{
							OFFSET 0.255332 -0.015649 -0.022946
							CHANNELS 3 Zrotation Yrotation Xrotation
							JOINT lwrist
							{
								OFFSET 0.265709 0.012698 -0.007375
								CHANNELS 3 Zrotation Yrotation Xrotation
								End Site
								{
									OFFSET 0.000000 0.000000 0.000000
								}
							}
						}
					}
				}
				JOINT rclavicle
				{
					OFFSET -0.082954 0.112472 -0.023707
					CHANNELS 3 Zrotation Yrotation Xrotation
					JOINT rshoulder
					{
						OFFSET -0.113228 0.046853 -0.008472
						CHANNELS 3 Zrotation Yrotation Xrotation
						JOINT relbow
						{
							OFFSET -0.260127 -0.014369 -0.031269
							CHANNELS 3 Zrotation Yrotation Xrotation
							JOINT rwrist
							{
								OFFSET -0.269108 0.006794 -0.006027
								CHANNELS 3 Zrotation Yrotation Xrotation
								End Site
								{
									OFFSET 0.000000 0.000000 0.000000
								}
							}
						}
					}
				}
			}
		}
	}
}
MOTION
Frames: 17
Frame Time: 0.033333
0.085033 0.251098 1.006010 84.815150 0.662806 89.764083 1.932223 2.626863 10.330037 4.364058 -1.368855 -8.150476 0.277665 13.909717 -3.916808 0.000000 -0.000000 0.000000 -1.214389 -3.465479 2.556713 -3.494809 3.351623 -1.919836 5.267797 -10.755272 -0.636878 0.000000 -0.000000 0.000000 1.565653 0.208926 3.517684 3.069979 -3.079484 3.932775 1.564592 -0.657545 1.754810 -1.976007 0.477908 -4.295579 0.413791 2.061016 -9.033016 -18.536708 1.804872 4.645939 -27.060183 -1.095379 26.981019 -101.940385 -47.395236 124.044615 37.411076 -23.913662 -17.648075 18.711369 -2.224877 6.176065 18.332915 -6.367458 30.210400 119.937406 52.534134 144.536609 -42.818485 29.040567 -9.493669 
0.085015 0.251065 1.005984 84.786415 0.660560 89.860421 1.909558 2.589620 10.236895 4.356634 -1.386957 -8.158860 0.244334 14.045448 -3.911101 0.000000 -0.000000 0.000000 -1.219832 -3.387357 2.438942 -3.477294 3.380352 -1.898359 5.421904 -10.898589 -0.638391 0.000000 -0.000000 0.000000 1.520008 0.154538 3.343396 3.104244 -3.084827 3.989513 1.599014 -0.613771 1.767293 -2.015126 0.480204 -4.240459 0.365672 2.094257 -9.017584 -18.539726 1.773596 4.713717 -27.124842 -1.063025 26.937385 -101.860184 -47.438928 124.166741 37.548238 -23.785077 -17.866897 18.624552 -2.152705 6.420629 18.421258 -6.393657 30.040167 119.929224 52.579413 144.690478 -42.778697 28.941389 -9.593714 
0.084476 0.251106 1.005881 84.779096 0.656465 90.049744 1.884341 2.492212 9.991087 4.369100 -1.422096 -8.165056 0.234647 14.222132 -3.891062 0.000000 -0.000000 0.000000 -1.198680 -3.236524 2.162393 -3.468950 3.416271 -1.838635 5.586278 -11.125411 -0.648293 0.000000 -0.000000 0.000000 1.491359 0.055921 3.186437 3.126907 -3.065714 3.960256 1.634373 -0.561454 1.780528 -2.050491 0.492784 -4.229264 0.276294 2.174648 -8.991947 -18.542320 1.753125 4.792987 -27.180575 -1.022152 26.887502 -101.805762 -47.474599 124.390818 37.717807 -23.615133 -18.246596 18.499063 -2.050458 6.707511 18.555900 -6.407299 29.849618 119.906655 52.626420 144.868272 -42.794748 28.832973 -9.713897 
0.083890 0.251217 1.005872 84.782149 0.642651 90.115447 1.847012 2.399447 9.859511 4.372975 -1.476689 -8.093642 0.192559 14.392362 -3.879824 0.000000 -0.000000 0.000000 -1.208560 -3.145908 2.035315 -3.471611 3.460027 -1.815863 5.726291 -11.307044 -0.679655 0.000000 -0.000000 0.000000 1.495422 0.000380 3.191187 3.127582 -3.058460 3.962305 1.655295 -0.544770 1.794839 -2.099941 0.532291 -4.276871 0.224052 2.262728 -9.026618 -18.534846 1.661129 4.812453 -27.160466 -1.021360 26.917329 -101.767304 -47.407407 124.535322 37.940208 -23.453809 -18.499393 18.423287 -1.919945 6.809278 18.587410 -6.440972 29.760983 119.899759 52.588532 144.968178 -42.869362 28.775922 -9.752550 
0.083763 0.251247 1.005885 84.810196 0.647949 90.127679 1.854247 2.393065 9.839648 4.379295 -1.507258 -8.086750 0.183562 14.370865 -3.855835 0.000000 -0.000000 0.000000 -1.204691 -3.156441 2.020396 -3.474466 3.460928 -1.820083 5.747679 -11.309936 -0.664596 0.000000 -0.000000 0.000000 1.496865 -0.000354 3.183722 3.139027 -3.072203 3.980717 1.667276 -0.544611 1.792684 -2.125631 0.553912 -4.275276 0.233533 2.270614 -9.030824 -18.531943 1.615450 4.843168 -27.173607 -1.025570 26.918220 -101.755036 -47.406505 124.558543 37.951219 -23.414701 -18.513661 18.428834 -1.901884 6.834094 18.560517 -6.468300 29.748069 119.924533 52.580895 145.035875 -42.897948 28.761053 -9.770823 
0.083374 0.251293 1.005822 84.795771 0.659968 90.192035 1.866831 2.391998 9.731505 4.392172 -1.511574 -8.082050 0.212585 14.379257 -3.884755 0.000000 -0.000000 0.000000 -1.173623 -3.106755 1.884508 -3.499918 3.473244 -1.743873 5.733383 -11.337631 -0.667219 0.000000 -0.000000 0.000000 1.537824 -0.043569 3.193807 3.138339 -3.042327 3.910127 1.672455 -0.553301 1.817786 -2.121802 0.561725 -4.317051 0.231359 2.286594 -8.889560 -18.488193 1.592011 4.853217 -27.204009 -1.029906 26.903819 -101.694085 -47.350181 124.548233 37.837477 -23.378432 -18.508241 18.358790 -1.870525 6.869145 18.588324 -6.442220 29.720443 119.897829 52.536448 145.060987 -42.824924 28.768155 -9.724775 
0.083235 0.251386 1.005864 84.777806 0.643047 90.176397 1.838749 2.399597 9.772312 4.401817 -1.534974 -8.137433 0.140115 14.372277 -3.826463 0.000000 -0.000000 0.000000 -1.207083 -3.078522 1.894973 -3.481644 3.458866 -1.758156 5.750855 -11.334142 -0.639682 0.000000 -0.000000 0.000000 1.547255 -0.048655 3.233768 3.151009 -3.036601 3.948235 1.683116 -0.563739 1.812330 -2.154217 0.582511 -4.270143 0.177761 2.269218 -8.960239 -18.560250 1.604978 4.833786 -27.159169 -1.031072 26.885725 -101.693096 -47.350107 124.538150 37.820491 -23.495088 -18.472177 18.342490 -1.887816 6.879662 18.588711 -6.417163 29.698550 119.940206 52.564515 145.109321 -42.848696 28.802692 -9.562963 
0.083028 0.251424 1.005852 84.775790 0.629659 90.184758 1.823679 2.403626 9.724571 4.388974 -1.499766 -8.082714 0.152651 14.364807 -3.835459 0.000000 -0.000000 0.000000 -1.217669 -3.098621 1.857612 -3.494247 3.474616 -1.733913 5.787341 -11.336389 -0.609610 0.000000 -0.000000 0.000000 1.524060 -0.018084 3.243071 3.183596 -3.057185 3.992671 1.712861 -0.582107 1.820135 -2.177097 0.521624 -4.237489 0.156657 2.286591 -9.029480 -18.579678 1.605328 4.849165 -27.191692 -1.047308 26.856814 -101.636214 -47.377148 124.465627 37.828639 -23.530162 -18.353639 18.331442 -1.914346 6.848192 18.585724 -6.431392 29.674355 120.064127 52.598981 145.182609 -42.606106 28.864018 -9.458443 
0.082815 0.251509 1.005760 84.768628 0.652319 90.203404 1.845119 2.442286 9.687266 4.420081 -1.548388 -8.093565 0.187348 14.366575 -3.909049 0.000000 -0.000000 0.000000 -1.196990 -3.084369 1.803485 -3.490969 3.495444 -1.688934 5.730742 -11.350771 -0.629840 0.000000 -0.000000 0.000000 1.569423 -0.052467 3.258933 3.195729 -3.046183 4.008254 1.720737 -0.578011 1.841016 -2.222145 0.517353 -4.183405 0.165755 2.318549 -9.075003 -18.572321 1.625887 4.852094 -27.234539 -1.037312 26.834183 -101.636402 -47.389501 124.495127 37.956040 -23.458777 -18.301572 18.345542 -1.950724 6.801069 18.537845 -6.430856 29.663133 120.112195 52.567729 145.222074 -42.648196 28.885439 -9.370400 
0.082572 0.251668 1.005881 84.796517 0.591781 90.161348 1.786901 2.459858 9.714573 4.410832 -1.585876 -8.093162 0.136724 14.316234 -3.859935 0.000000 -0.000000 0.000000 -1.288876 -3.114218 1.845277 -3.455415 3.472650 -1.704100 5.809017 -11.360007 -0.590206 0.000000 -0.000000 0.000000 1.546216 -0.071843 3.362181 3.190778 -3.094104 4.039816 1.726029 -0.588469 1.874687 -2.186307 0.567586 -4.252052 0.151051 2.280263 -8.999173 -18.551141 1.692443 4.842097 -27.313474 -1.018929 26.816031 -101.634082 -47.424941 124.509307 38.095713 -23.446166 -18.183399 18.399053 -2.005676 6.747338 18.550800 -6.385873 29.652019 120.126593 52.620048 145.260440 -42.870816 28.906155 -9.302848 
0.082508 0.251826 1.005849 84.753644 0.592217 90.197301 1.757652 2.457268 9.674550 4.436562 -1.567043 -8.085611 0.191666 14.329721 -3.882969 0.000000 -0.000000 0.000000 -1.290745 -3.083856 1.784472 -3.469395 3.518341 -1.674380 5.818642 -11.363564 -0.636448 0.000000 -0.000000 0.000000 1.593739 -0.072116 3.275517 3.222821 -3.104524 4.130726 1.716511 -0.581286 1.898988 -2.200980 0.598460 -4.225487 0.091684 2.308762 -8.940783 -18.525136 1.713807 4.824974 -27.428212 -1.062572 26.755005 -101.481218 -47.424541 124.458794 38.225764 -23.458086 -18.156551 18.393291 -2.056837 6.835960 18.571736 -6.374895 29.539365 120.217085 52.673553 145.442932 -42.975267 28.929614 -9.318351 
0.082618 0.251811 1.005848 84.710548 0.568427 90.143542 1.741611 2.480032 9.765004 4.407481 -1.568339 -8.074153 0.231569 14.322372 -3.848179 0.000000 -0.000000 0.000000 -1.327204 -3.086360 1.854531 -3.473873 3.530556 -1.684262 5.830645 -11.331985 -0.623469 0.000000 -0.000000 0.000000 1.582343 -0.072189 3.340809 3.253675 -3.118383 4.139055 1.731124 -0.573243 1.902264 -2.237839 0.644175 -4.135696 0.052611 2.343607 -8.885485 -18.526581 1.744623 4.762958 -27.448891 -1.028456 26.772099 -101.475245 -47.390761 124.520855 38.150615 -23.440311 -18.042400 18.402323 -2.088631 6.858302 18.560769 -6.425134 29.539743 120.280199 52.689604 145.495842 -42.897166 28.876279 -9.344233 
0.082694 0.251866 1.005736 84.641596 0.620398 90.201947 1.778286 2.446317 9.747838 4.432190 -1.508107 -8.178132 0.181679 14.319587 -3.841258 0.000000 -0.000000 0.000000 -1.261089 -3.040545 1.794078 -3.489701 3.586294 -1.709901 5.792084 -11.325236 -0.615211 0.000000 -0.000000 0.000000 1.706559 -0.107956 3.177864 3.265645 -3.119365 4.238329 1.695511 -0.556077 1.969563 -2.209569 0.669642 -4.135230 0.011010 2.351330 -8.850589 -18.560155 1.778248 4.748478 -27.459655 -1.051663 26.704170 -101.446123 -47.393485 124.573400 37.985957 -23.465057 -17.885326 18.402312 -2.098522 6.896663 18.566311 -6.379069 29.472564 120.244083 52.723202 145.540629 -42.878511 28.917209 -9.146282 
0.082652 0.251861 1.005825 84.681990 0.571837 90.111504 1.730614 2.399294 9.790846 4.409617 -1.493803 -8.071012 0.139047 14.348203 -3.881619 0.000000 -0.000000 0.000000 -1.329869 -3.059911 1.909216 -3.489071 3.569972 -1.724615 5.813756 -11.269914 -0.603483 0.000000 -0.000000 0.000000 1.671488 -0.099342 3.350038 3.280830 -3.196216 4.205742 1.733136 -0.590320 1.947063 -2.205273 0.723488 -4.049186 -0.021748 2.389309 -8.956106 -18.563841 1.794259 4.740986 -27.468292 -1.014917 26.713232 -101.488553 -47.410158 124.599886 38.040938 -23.420805 -17.835819 18.400078 -2.109730 6.839854 18.587640 -6.355670 29.537211 120.273472 52.703563 145.600971 -43.102533 28.870143 -9.147176 
0.082735 0.251892 1.005805 84.569184 0.574050 90.098383 1.725020 2.444386 9.850180 4.395822 -1.416496 -8.109690 0.151833 14.393115 -3.916786 0.000000 -0.000000 0.000000 -1.334611 -3.035409 1.866624 -3.467558 3.571040 -1.638653 5.799086 -11.270719 -0.603023 0.000000 -0.000000 0.000000 1.741777 -0.116042 3.295562 3.291337 -3.180987 4.292522 1.702826 -0.565167 2.013132 -2.158944 0.717472 -4.058935 -0.111086 2.367729 -8.935998 -18.540427 1.832204 4.755202 -27.490604 -1.098366 26.640407 -101.413361 -47.396462 124.624853 37.933954 -23.434504 -17.864386 18.445548 -2.148184 6.816881 18.569674 -6.277001 29.505306 120.244657 52.675210 145.656118 -43.142403 28.909492 -9.275779 
0.082730 0.251874 1.005833 84.571219 0.567875 90.088761 1.735916 2.453738 9.853344 4.362764 -1.454569 -8.057658 0.253111 14.353568 -3.828606 0.000000 -0.000000 0.000000 -1.339187 -3.022835 1.889622 -3.466225 3.569456 -1.648812 5.793270 -11.298490 -0.638582 0.000000 -0.000000 0.000000 1.771878 -0.144811 3.322192 3.309911 -3.209254 4.299518 1.675836 -0.574646 2.020370 -2.100591 0.737518 -4.100237 -0.142326 2.415757 -8.823742 -18.557716 1.853166 4.753924 -27.450047 -1.160317 26.611266 -101.371930 -47.336497 124.624479 37.845964 -23.473344 -17.821028 18.512562 -2.179168 6.783105 18.526123 -6.271779 29.558385 120.328712 52.720784 145.712968 -43.020974 28.931071 -9.158722 
0.082728 0.251841 1.005733 84.557685 0.556605 90.111115 1.729705 2.461476 9.822903 4.360482 -1.449501 -8.088338 0.240568 14.369432 -3.848444 0.000000 -0.000000 0.000000 -1.347427 -3.010296 1.847953 -3.463852 3.595158 -1.618075 5.783041 -11.305278 -0.647039 0.000000 -0.000000 0.000000 1.815575 -0.179729 3.335878 3.304435 -3.227701 4.288491 1.636417 -0.593391 2.031171 -2.075159 0.788666 -4.179491 -0.090556 2.403125 -8.722839 -18.514994 1.856356 4.727215 -27.467609 -1.136766 26.638037 -101.373844 -47.297633 124.682234 37.797513 -23.365554 -17.819457 18.518263 -2.204158 6.750743 18.558592 -6.239172 29.547127 120.315095 52.730999 145.760993 -42.983841 28.934277 -9.096819 
